<svg xmlns="http://www.w3.org/2000/svg" width="11.13" height="5.056" viewBox="0 0 11.13 5.056">
  <g id="Group_1436" data-name="Group 1436" transform="translate(0 0)">
    <path id="Path_1205" data-name="Path 1205" d="M11.845,27.758a2.527,2.527,0,0,0-3.571,0l-.735.7a.38.38,0,0,0,0,.537.392.392,0,0,0,.535,0l.735-.7a1.768,1.768,0,1,1,0,2.5L7.289,29.276h0L5.77,27.758a2.528,2.528,0,1,0,0,3.574l1.25-1.25,1.25,1.249a2.528,2.528,0,1,0,3.575-3.574ZM5.233,30.794a1.768,1.768,0,1,1,0-2.5l1.25,1.249Z" transform="translate(-1.455 -27.017)" fill="#26e988"/>
  </g>
</svg>
