<svg xmlns="http://www.w3.org/2000/svg" width="10.595" height="10.594" viewBox="0 0 10.595 10.594">
  <path id="Subtraction_79" data-name="Subtraction 79" d="M11738.294,14170.593a5.3,5.3,0,1,1,5.3-5.295A5.3,5.3,0,0,1,11738.294,14170.593Zm0-3.605a.412.412,0,1,0,.417.412A.412.412,0,0,0,11738.294,14166.987Zm0-3.03a.5.5,0,0,1,.506.5c0,.144-.068.238-.271.374l-.011.008a1.275,1.275,0,0,0-.637,1.069v.117a.415.415,0,0,0,.829,0v-.117c0-.154.068-.249.28-.391l0,0a1.27,1.27,0,0,0,.628-1.057,1.33,1.33,0,0,0-2.66,0,.415.415,0,0,0,.829,0A.5.5,0,0,1,11738.294,14163.957Z" transform="translate(-11732.999 -14159.999)" fill="#cbc8d0"/>
</svg>
