<svg xmlns="http://www.w3.org/2000/svg" width="8.307" height="11.13" viewBox="0 0 8.307 11.13">
  <path id="Vector" d="M3.116,11.13a.643.643,0,0,1-.248-.047c-.207-.078-.559-.331-.559-1.134V6.612H1.1a1.01,1.01,0,0,1-1.03-.518,1.012,1.012,0,0,1,.29-1.118L4.275.525c.528-.6.958-.559,1.165-.481S6,.375,6,1.177V4.516H7.21a1.01,1.01,0,0,1,1.03.518,1.012,1.012,0,0,1-.29,1.118L4.032,10.6A1.261,1.261,0,0,1,3.116,11.13ZM5.155.774a1.7,1.7,0,0,0-.3.269L.942,5.494a.568.568,0,0,0-.166.29.683.683,0,0,0,.321.057H2.7a.391.391,0,0,1,.388.388V9.956a.821.821,0,0,0,.067.4,1.7,1.7,0,0,0,.3-.269L7.365,5.639a.568.568,0,0,0,.166-.29.683.683,0,0,0-.321-.057h-1.6A.391.391,0,0,1,5.222,4.9V1.177A.775.775,0,0,0,5.155.774Z" fill="#26e988"/>
</svg>
