<svg id="vuesax_outline_global" data-name="vuesax/outline/global" xmlns="http://www.w3.org/2000/svg" width="11.13" height="11.13" viewBox="0 0 11.13 11.13">
  <g id="global" transform="translate(0 0)">
    <path id="Vector" d="M5.565,11.13A5.565,5.565,0,1,1,11.13,5.565,5.57,5.57,0,0,1,5.565,11.13Zm0-10.354a4.789,4.789,0,1,0,4.789,4.789A4.794,4.794,0,0,0,5.565.777Z" fill="#26e988"/>
    <path id="Vector-2" data-name="Vector" d="M1.138,10.1H.62a.391.391,0,0,1-.388-.388A.386.386,0,0,1,.61,9.319,15.267,15.267,0,0,1,.61.777.386.386,0,0,1,.232.388.391.391,0,0,1,.62,0h.518a.4.4,0,0,1,.316.16.389.389,0,0,1,.052.352,14.469,14.469,0,0,0,0,9.075.389.389,0,0,1-.052.352A.408.408,0,0,1,1.138,10.1Z" transform="translate(2.875 0.518)" fill="#26e988"/>
    <path id="Vector-3" data-name="Vector" d="M.389,10.1a.348.348,0,0,1-.124-.021.386.386,0,0,1-.243-.492,14.469,14.469,0,0,0,0-9.075A.388.388,0,1,1,.757.263a15.178,15.178,0,0,1,0,9.562A.385.385,0,0,1,.389,10.1Z" transform="translate(6.729 0.513)" fill="#26e988"/>
    <path id="Vector-4" data-name="Vector" d="M5.048,1.528A15.1,15.1,0,0,1,.777.917.388.388,0,0,1,0,.906V.389A.4.4,0,0,1,.16.073.389.389,0,0,1,.513.021a14.468,14.468,0,0,0,9.075,0A.389.389,0,0,1,9.94.073a.383.383,0,0,1,.16.316V.906a.391.391,0,0,1-.388.388A.386.386,0,0,1,9.324.917,15.166,15.166,0,0,1,5.048,1.528Z" transform="translate(0.518 6.73)" fill="#26e988"/>
    <path id="Vector-5" data-name="Vector" d="M9.709,1.528a.348.348,0,0,1-.124-.021,14.468,14.468,0,0,0-9.075,0,.388.388,0,0,1-.492-.243A.4.4,0,0,1,.266.773a15.177,15.177,0,0,1,9.562,0,.386.386,0,0,1,.243.492A.377.377,0,0,1,9.709,1.528Z" transform="translate(0.516 2.872)" fill="#26e988"/>
  </g>
</svg>
