<svg xmlns="http://www.w3.org/2000/svg" width="11.13" height="11.078" viewBox="0 0 11.13 11.078">
  <g id="vuesax_outline_headphone" data-name="vuesax/outline/headphone" transform="translate(0)">
    <g id="headphone" transform="translate(0 0)">
      <path id="Vector" d="M2.237,11.078A2.267,2.267,0,0,1,0,8.841V5.653A5.517,5.517,0,0,1,5.54,0,5.6,5.6,0,0,1,11.13,5.591V8.779a2.24,2.24,0,0,1-2.236,2.236A2.267,2.267,0,0,1,6.658,8.779V7.325a1.341,1.341,0,1,1,2.681,0V8.893a.388.388,0,1,1-.776,0V7.325a.564.564,0,1,0-1.128,0V8.779a1.46,1.46,0,1,0,2.92,0V5.591A4.818,4.818,0,0,0,5.54.776,4.739,4.739,0,0,0,.777,5.642v3.2a1.478,1.478,0,0,0,1.46,1.46A1.478,1.478,0,0,0,3.7,8.841V7.387a.564.564,0,1,0-1.128,0V8.9a.388.388,0,1,1-.776,0V7.387a1.341,1.341,0,1,1,2.681,0V8.841A2.267,2.267,0,0,1,2.237,11.078Z" transform="translate(0)" fill="#26e988"/>
    </g>
  </g>
</svg>
